<svg xmlns="http://www.w3.org/2000/svg" id="Capa_1" viewBox="0 0 140 140"><defs><style>.cls-1{fill:#ef7c32;}.cls-2{fill:#ee7c32;}.cls-3{fill:#43484e;}.cls-4{fill:#43b9b5;}</style></defs><path class="cls-2" d="M58.36,58.6s-.03-.03-.05-.04c-.14-.11-.24-.26-.31-.42,0-.02-.03-.03-.04-.05,0-.01,0-.03,0-.04-.02-.07-.02-.13-.02-.2,0-.07-.01-.13,0-.2,0-.01,0-.03,0-.04,0-.05,.04-.09,.05-.14,.02-.06,.04-.12,.07-.18,.04-.07,.09-.13,.15-.19,.03-.03,.06-.07,.09-.1,.08-.06,.16-.11,.26-.14,.02,0,.04-.03,.07-.04,8.91-2.9,14.89-11.08,14.86-20.35-.02-6.97-3.37-13.16-8.53-17.1-1.94-.56-3.99-.88-6.12-.87-12.03,.03-21.76,9.81-21.73,21.84,.02,6.97,3.32,13.15,8.42,17.12,3.71,2.89,8.36,4.62,13.42,4.6,2.45,0,4.8-.44,6.99-1.19-2.23-.94-4.61-1.67-7.18-2.11-.15-.03-.28-.09-.4-.17Z"></path><path class="cls-2" d="M62.32,57.48c2.2,.58,4.25,1.37,6.18,2.32,7.22-3.56,12.18-10.98,12.16-19.57-.02-7.84-4.19-14.68-10.41-18.5,3.26,4.04,5.23,9.15,5.24,14.73,.02,9.04-5.16,17.11-13.18,21.02Z"></path><path class="cls-3" d="M44.72,57.9s0-.06,.02-.09c-.02,.06-.04,.12-.07,.17,.02-.03,.04-.05,.06-.08Z"></path><path class="cls-3" d="M44.55,58.16s-.08,.09-.13,.13c.05-.04,.09-.08,.13-.13Z"></path><path class="cls-3" d="M44.25,58.4c-.05,.03-.11,.05-.17,.07,.06-.02,.12-.04,.17-.07Z"></path><path class="cls-3" d="M44.42,56.75c.05,.04,.1,.09,.14,.14-.04-.05-.09-.1-.14-.14Z"></path><path class="cls-3" d="M44.67,57.05c.03,.06,.06,.12,.08,.19-.02-.07-.04-.13-.08-.19Z"></path><path class="cls-3" d="M44.78,57.62c0-.06,.01-.12,0-.19,0,0,0,0,0-.01,0,.07,0,.13,0,.2Z"></path><path class="cls-3" d="M43.6,56.52c.24-.04,.47,.01,.67,.13-.03-.02-.06-.05-.09-.06-8.27-3.47-13.85-11.51-13.87-20.01-.03-11.9,9.63-21.61,21.53-21.64,4.93-.01,9.46,1.65,13.11,4.43,5.16,3.94,8.52,10.12,8.53,17.1,.02,9.27-5.95,17.45-14.86,20.35-.03,0-.04,.03-.07,.04,.17-.07,.35-.11,.55-.07,1.1,.19,2.18,.42,3.22,.7,8.02-3.9,13.2-11.98,13.18-21.02-.01-5.58-1.98-10.7-5.24-14.73-4.34-5.38-10.99-8.83-18.42-8.81-13.01,.03-23.58,10.65-23.54,23.66,.02,8.38,4.97,16.33,12.55,20.59,.9-.25,1.82-.48,2.76-.65Z"></path><path class="cls-3" d="M58,58.14s-.03-.06-.04-.09c0,.01,0,.03,0,.04,0,.02,.03,.03,.04,.05Z"></path><path class="cls-3" d="M58.36,58.6s-.03-.03-.05-.04c.02,.01,.03,.03,.05,.04Z"></path><path class="cls-3" d="M58.05,57.28c-.03,.06-.05,.12-.07,.18,.02-.06,.04-.12,.07-.18Z"></path><path class="cls-3" d="M58.2,57.09s.06-.07,.09-.1c-.03,.03-.06,.06-.09,.1Z"></path><path class="cls-3" d="M57.94,57.85c0-.07-.01-.13,0-.2,0,.07,0,.13,0,.2Z"></path><path class="cls-3" d="M68.5,59.8c-1.93-.96-3.99-1.74-6.18-2.32-1.05-.28-2.12-.51-3.22-.7-.2-.04-.38,0-.55,.07-.09,.04-.18,.08-.26,.14-.03,.03-.06,.06-.09,.1-.06,.06-.11,.12-.15,.19-.03,.05-.05,.12-.07,.18-.02,.05-.05,.09-.05,.14,0,.01,0,.03,0,.04,0,.07,0,.13,0,.2,0,.07,0,.14,.02,.2,0,.03,.03,.06,.04,.09,.07,.17,.17,.31,.31,.42,.02,.01,.03,.03,.05,.04,.12,.08,.25,.14,.4,.17,2.57,.44,4.95,1.16,7.18,2.11,8.78,3.72,14.84,11.24,17.42,21.53,.58-.42,1.18-.8,1.8-1.16-2.63-9.92-8.39-17.35-16.65-21.44Z"></path><path class="cls-3" d="M44.78,57.42s0-.06,0-.09c0-.03-.03-.06-.04-.09-.02-.07-.04-.13-.08-.19-.03-.06-.06-.11-.1-.16-.04-.05-.09-.1-.14-.14-.05-.04-.1-.07-.15-.1-.2-.11-.43-.17-.67-.13-.94,.18-1.86,.4-2.76,.65-14.85,4.13-23.6,17.82-23.55,37.24,0,.56,.45,1.01,1.01,1.01s1.01-.45,1.01-1.01c-.05-19.83,8.94-32.92,24.67-35.9,.04,0,.06-.03,.1-.04,.06-.02,.12-.04,.17-.07,.06-.03,.12-.07,.17-.11,.05-.04,.09-.08,.13-.13,.05-.05,.08-.11,.12-.17,.03-.05,.05-.11,.07-.17,.02-.06,.03-.13,.04-.2,0-.07,0-.13,0-.2Z"></path><path class="cls-4" d="M73.57,101.41c0-2.23,.32-4.39,.91-6.44-2.02,3.24-3.19,7.05-3.18,11.14,.03,11.61,9.46,21,21.07,20.97,4.38-.01,8.44-1.36,11.81-3.67-2.33,.77-4.78,1.22-7.26,1.23-12.84,.03-23.32-10.39-23.35-23.23Z"></path><path class="cls-1" d="M120.16,101.29c0,2.6-.43,5.12-1.23,7.5,2.39-3.42,3.8-7.58,3.79-12.06-.03-11.61-9.46-21-21.07-20.97-4.05,.01-7.82,1.18-11.02,3.18,1.97-.55,4.04-.87,6.19-.88,12.84-.03,23.32,10.39,23.35,23.23Z"></path><path class="cls-3" d="M120.16,101.29c-.03-12.84-10.51-23.27-23.35-23.23-2.15,0-4.21,.33-6.19,.88-1.94,.54-3.77,1.32-5.47,2.31-.62,.36-1.22,.75-1.8,1.16-4.23,3.03-7.41,7.43-8.87,12.56-.58,2.05-.91,4.2-.91,6.44,.03,12.84,10.51,23.26,23.35,23.23,2.48,0,4.92-.45,7.26-1.23,1.49-.49,2.95-1.09,4.31-1.88,.42-.24,.58-.73,.44-1.17-.02-.07-.03-.14-.07-.21-.28-.48-.9-.65-1.38-.37-3.2,1.85-6.85,2.83-10.57,2.84-11.73,.03-21.3-9.49-21.33-21.22-.03-11.73,9.49-21.3,21.22-21.33,11.73-.03,21.3,9.49,21.33,21.22,.01,5.86-2.3,11.32-6.52,15.38-.4,.39-.41,1.03-.03,1.43,.05,.05,.12,.08,.18,.12,.39,.25,.9,.23,1.25-.1,2.75-2.65,4.74-5.84,5.91-9.34,.8-2.38,1.23-4.9,1.23-7.5Z"></path><path class="cls-3" d="M96,101.35c0-.56,.45-1.01,1.01-1.01-2.03,0-3.69-1.65-3.7-3.68s1.65-3.69,3.68-3.7c-.56,0-1.01-.45-1.01-1.01v-.91c-2.67,.49-4.69,2.82-4.69,5.62,0,3.15,2.57,5.7,5.72,5.69-.56,0-1.01-.45-1.01-1.01Z"></path><path class="cls-3" d="M96.99,92.96c2.03,0,3.69,1.65,3.7,3.68,0,.56,.45,1.01,1.01,1.01s1.01-.45,1.01-1.01c0-2.8-2.05-5.12-4.71-5.59v.91c0,.56-.45,1.01-1,1.01Z"></path><path class="cls-3" d="M97.03,109.74c-2.03,0-3.69-1.65-3.7-3.68,0-.56-.45-1.01-1.01-1.01s-1.01,.45-1.01,1.01c0,2.8,2.05,5.12,4.71,5.59v-.91c0-.56,.45-1.01,1-1.01Z"></path><path class="cls-3" d="M102.73,106.03c0-3.15-2.57-5.7-5.72-5.69-.56,0-1.01,.45-1.01,1.01s.45,1.01,1.01,1.01c2.03,0,3.69,1.65,3.7,3.68s-1.65,3.69-3.68,3.7c.56,0,1.01,.45,1.01,1.01v.91c2.67-.49,4.69-2.82,4.69-5.62Z"></path><path class="cls-3" d="M96.99,92.96c.56,0,1.01-.45,1.01-1.01v-.91s0-1.44,0-1.44c0-.56-.45-1.01-1.01-1.01s-1.01,.45-1.01,1.01v1.44s0,.91,0,.91c0,.56,.45,1.01,1.01,1.01Z"></path><path class="cls-3" d="M97.03,109.74c-.56,0-1.01,.45-1.01,1.01v.91s0,1.44,0,1.44c0,.56,.45,1.01,1.01,1.01s1.01-.45,1.01-1.01v-1.44s0-.91,0-.91c0-.56-.45-1.01-1.01-1.01Z"></path></svg>