<svg xmlns="http://www.w3.org/2000/svg" id="Capa_1" viewBox="0 0 140 140"><defs><style>.cls-1{fill:none;}.cls-2{fill:#ef7c32;}.cls-3{fill:#43484e;}.cls-4{fill:#43b9b5;}</style></defs><path class="cls-1" d="M114.01,70.73c.54-.77,1.06-1.61,1.52-2.58-10.82-2.51-16.05,5.48-17.6,8.47,1.13,.23,3.01,.47,5.17,.3,2.14-2.7,5.67-5.71,10.91-6.19Z"></path><path class="cls-4" d="M60.2,58.25s-.03-.03-.05-.04c-.14-.11-.24-.26-.31-.42,0-.02-.03-.03-.04-.05,0-.01,0-.03,0-.04-.02-.07-.02-.13-.02-.2,0-.07-.01-.13,0-.2,0-.01,0-.03,0-.04,0-.05,.04-.09,.05-.14,.02-.06,.04-.12,.07-.18,.04-.07,.09-.13,.15-.19,.03-.03,.06-.07,.09-.1,.08-.06,.16-.11,.25-.14,.02-.01,.04-.03,.07-.04,8.91-2.9,14.89-11.08,14.86-20.35-.02-6.97-3.37-13.16-8.53-17.1-1.94-.56-3.99-.88-6.12-.87-12.03,.03-21.76,9.81-21.73,21.84,.02,6.97,3.32,13.15,8.42,17.12,3.71,2.89,8.36,4.62,13.42,4.6,2.45,0,4.8-.44,6.99-1.19-2.23-.94-4.61-1.67-7.18-2.11-.15-.03-.28-.09-.4-.17Z"></path><path class="cls-4" d="M64.16,57.13c2.2,.58,4.25,1.37,6.18,2.32,7.22-3.56,12.18-10.98,12.16-19.57-.02-7.84-4.19-14.68-10.41-18.5,3.26,4.04,5.23,9.15,5.24,14.73,.02,9.04-5.16,17.11-13.18,21.02Z"></path><path class="cls-3" d="M46.38,57.81s-.08,.09-.13,.13c.05-.04,.09-.08,.13-.13Z"></path><path class="cls-3" d="M46.09,58.04c-.05,.03-.11,.05-.17,.07,.06-.02,.12-.04,.17-.07Z"></path><path class="cls-3" d="M46.56,57.55s0-.06,.02-.09c-.02,.06-.04,.11-.07,.17,.02-.03,.04-.05,.05-.08Z"></path><path class="cls-3" d="M45.44,56.17c.24-.04,.48,.02,.69,.14-.04-.02-.07-.06-.11-.07-8.27-3.47-13.85-11.51-13.87-20-.03-11.9,9.63-21.61,21.53-21.64,4.93-.01,9.46,1.65,13.11,4.43,5.16,3.94,8.52,10.12,8.53,17.1,.02,9.27-5.95,17.45-14.86,20.35-.03,0-.04,.03-.07,.04,.17-.07,.35-.11,.55-.07,1.1,.19,2.18,.42,3.22,.7,8.02-3.9,13.2-11.98,13.18-21.02-.01-5.58-1.98-10.7-5.24-14.73-4.34-5.38-10.99-8.83-18.42-8.81-13.01,.03-23.58,10.65-23.54,23.66,.02,8.38,4.97,16.33,12.55,20.59,.9-.25,1.82-.48,2.76-.65Z"></path><path class="cls-3" d="M46.5,56.69c.03,.06,.06,.13,.08,.2-.02-.07-.05-.13-.08-.2Z"></path><path class="cls-3" d="M46.61,57.27c0-.06,.01-.12,0-.19,0,0,0,0,0-.01,0,.07,0,.13,0,.2Z"></path><path class="cls-3" d="M46.24,56.38c.06,.05,.12,.11,.17,.17-.05-.06-.11-.12-.17-.17Z"></path><path class="cls-3" d="M59.84,57.79s-.03-.06-.04-.09c0,.01,0,.03,0,.04,0,.02,.03,.03,.04,.05Z"></path><path class="cls-3" d="M60.2,58.25s-.03-.03-.05-.04c.02,.01,.03,.03,.05,.04Z"></path><path class="cls-3" d="M59.89,56.93c-.03,.06-.05,.12-.07,.18,.02-.06,.04-.12,.07-.18Z"></path><path class="cls-3" d="M59.78,57.5c0-.07-.01-.13,0-.2,0,.07,0,.13,0,.2Z"></path><path class="cls-3" d="M60.04,56.74s.06-.07,.09-.1c-.04,.03-.06,.06-.09,.1Z"></path><path class="cls-3" d="M70.34,59.45c-1.93-.96-3.99-1.74-6.18-2.32-1.05-.28-2.12-.51-3.22-.7-.2-.04-.38,0-.55,.07-.09,.04-.18,.08-.25,.14-.03,.03-.06,.06-.09,.1-.06,.06-.11,.12-.15,.19-.03,.05-.05,.12-.07,.18-.02,.05-.05,.09-.05,.14,0,.01,0,.03,0,.04,0,.07,0,.13,0,.2,0,.07,0,.14,.02,.2,0,.03,.03,.06,.04,.09,.07,.17,.17,.31,.31,.42,.02,.01,.03,.03,.05,.04,.12,.08,.25,.14,.4,.17,2.57,.44,4.95,1.16,7.18,2.11,8.99,3.8,15.12,11.58,17.6,22.24,.61-.31,1.24-.59,1.88-.85-2.5-10.43-8.36-18.23-16.91-22.47Z"></path><path class="cls-3" d="M46.62,57.07s0-.06,0-.09c0-.03-.03-.06-.04-.09-.02-.07-.05-.14-.08-.2-.03-.05-.05-.09-.09-.13-.05-.06-.11-.12-.17-.17-.04-.03-.07-.05-.11-.08-.21-.12-.45-.18-.69-.14-.94,.18-1.86,.4-2.76,.65-14.85,4.13-23.6,17.82-23.55,37.24,0,.56,.45,1.01,1.01,1.01s1.01-.45,1.01-1.01c-.05-19.83,8.94-32.92,24.67-35.9,.04,0,.06-.03,.1-.04,.06-.02,.12-.04,.17-.07,.06-.03,.12-.07,.17-.11,.05-.04,.09-.08,.13-.13,.05-.05,.08-.11,.12-.17,.03-.05,.05-.11,.07-.17,.02-.06,.03-.13,.04-.2,0-.07,0-.13,0-.2Z"></path><path class="cls-2" d="M110.56,118.28c-.4,.38-1.04,.37-1.43-.03-.39-.4-.37-1.04,.03-1.43,3.97-3.82,6.15-8.96,6.14-14.47-.01-5.79-2.52-10.99-6.47-14.64-2.9-1.49-6.17-2.34-9.65-2.33-11.61,.03-21,9.46-20.97,21.07,0,3.35,.82,6.5,2.22,9.31,3.68,4.09,8.99,6.67,14.91,6.66,3.49,0,6.93-.93,9.94-2.67,.48-.28,1.1-.11,1.38,.37,.28,.48,.11,1.1-.37,1.38-3.31,1.91-7.1,2.93-10.94,2.94s-7.2-.91-10.27-2.53c3.75,3.43,8.73,5.53,14.21,5.52,11.61-.03,21-9.46,20.97-21.07-.01-5.35-2.04-10.22-5.35-13.92,1.52,2.98,2.41,6.35,2.42,9.92,.02,6.06-2.38,11.72-6.75,15.93Z"></path><path class="cls-4" d="M120.88,71.48c-1.58-.46-3.05-.7-4.42-.78-4.01,6.79-10.27,8.23-14.77,8.26-.58,.95-.95,1.71-1.12,2.09,.85,.21,1.68,.47,2.49,.78,4.46,.54,13.49,.19,17.82-10.34Z"></path><path class="cls-4" d="M103.1,76.93c3.52-.28,7.78-1.7,10.91-6.19-5.24,.48-8.77,3.5-10.91,6.19Z"></path><path class="cls-3" d="M95.23,80.38c-2.82,0-5.5,.57-7.98,1.54-.64,.25-1.27,.54-1.88,.85-7.19,3.65-12.14,11.1-12.12,19.7,.02,8.44,4.82,15.77,11.81,19.45,3.07,1.62,6.57,2.54,10.27,2.53s7.63-1.02,10.94-2.94c.48-.28,.65-.9,.37-1.38-.28-.48-.9-.65-1.38-.37-3.01,1.74-6.45,2.66-9.94,2.67-5.92,.01-11.23-2.57-14.91-6.66-3.18-3.53-5.14-8.19-5.15-13.31-.03-11.03,8.93-20.03,19.96-20.06,5.24-.01,10.01,2.02,13.59,5.32,3.95,3.65,6.46,8.85,6.47,14.64s-2.17,10.65-6.14,14.47c-.4,.39-.41,1.03-.03,1.43,.39,.4,1.02,.41,1.43,.03,4.37-4.21,6.77-9.87,6.75-15.93,0-3.57-.89-6.94-2.42-9.92-2.48-4.86-6.71-8.66-11.85-10.61-.81-.31-1.64-.56-2.49-.78-1.71-.42-3.49-.67-5.33-.67Z"></path><path class="cls-3" d="M116.45,70.7c.51-.86,.99-1.79,1.42-2.83,.11-.27,.1-.56-.02-.82s-.35-.45-.63-.53c-15.56-4.52-21.6,10.29-21.65,10.44-.1,.26-.09,.55,.03,.81s.35,.45,.61,.53c.06,.02,2.31,.68,5.42,.67,.02,0,.04,0,.06,0,4.5-.02,10.76-1.47,14.77-8.26Zm-13.35,6.23c-2.16,.17-4.04-.07-5.17-.3,1.54-2.99,6.78-10.99,17.6-8.47-.46,.97-.98,1.81-1.52,2.58-3.13,4.49-7.4,5.92-10.91,6.19Z"></path></svg>